# xmcd
#
# Track frame offsets:
#	150
#	22224
#	38656
#	58156
#	72040
#	88315
#	105045
#	125767
#	145124
#	164265
#	180046
#	196949
#	213562
#	229636
#	246981
#	263875
#	280036
#	296707
#
# Disc length: 4194 seconds
#
# Revision: 3
# Processed by: cddbd v1.5.2PL0 Copyright (c) Steve Scherf et al.
# Submitted via: audiograbber 1.83.01
#
DISCID=04106012
DTITLE=Various Artist - SFG357
DYEAR=2015
DGENRE=karaoke
TTITLE0=Sam Smith - Writing's on the wall
TTITLE1=Jamie Lawson - Wasn't expecting that
TTITLE2=Rudimental f. Ed Sheeran - Lay it on me
TTITLE3=Nick Jonas - Levels
TTITLE4=Olly Murs - Kiss me
TTITLE5=Drake and Future - Jumpman
TTITLE6=Sia - Alive
TTITLE7=One Direction - Infinity
TTITLE8=WSTRN - In2
TTITLE9=Vamps - Wake Up
TTITLE10=Ellie Goulding - On my mind
TTITLE11=Naughty Boy f. Beyonce and Arrow Benjamin - Runnin' (lose it all)
TTITLE12=Little Mix - Love me like you
TTITLE13=MNEK and Zara Larsson - Never forget you
TTITLE14=Will Young - Joy
TTITLE15=KDA f. Tinie Tempah and Katy B - Turn the music louder (rumble)
TTITLE16=Nick Brewer f. Bibi Bourelly - Talk to me
TTITLE17=Janet Jackson - Unbreakable
EXTD=
EXTT0=
EXTT1=
EXTT2=
EXTT3=
EXTT4=
EXTT5=
EXTT6=
EXTT7=
EXTT8=
EXTT9=
EXTT10=
EXTT11=
EXTT12=
EXTT13=
EXTT14=
EXTT15=
EXTT16=
EXTT17=
PLAYORDER=
